<mxfile host="app.diagrams.net" agent="Mozilla/5.0 (Windows NT 10.0; Win64; x64) AppleWebKit/537.36 (KHTML, like Gecko) Chrome/131.0.0.0 Safari/537.36" version="25.0.3">
  <diagram name="Page-1" id="H0CacbG_EedihhDtu6hH">
    <mxGraphModel dx="764" dy="408" grid="1" gridSize="10" guides="1" tooltips="1" connect="1" arrows="1" fold="1" page="1" pageScale="1" pageWidth="827" pageHeight="1169" math="0" shadow="0">
      <root>
        <mxCell id="0" />
        <mxCell id="1" parent="0" />
        <mxCell id="mNukyWY0nVPuf0ZmyYI_-1" value="1.1 View Main-Menu" style="ellipse;whiteSpace=wrap;html=1;" vertex="1" parent="1">
          <mxGeometry x="230" y="150" width="100" height="60" as="geometry" />
        </mxCell>
        <mxCell id="mNukyWY0nVPuf0ZmyYI_-2" value="Player" style="rounded=0;whiteSpace=wrap;html=1;" vertex="1" parent="1">
          <mxGeometry y="160" width="80" height="40" as="geometry" />
        </mxCell>
        <mxCell id="mNukyWY0nVPuf0ZmyYI_-3" value="1.2 Load World" style="ellipse;whiteSpace=wrap;html=1;" vertex="1" parent="1">
          <mxGeometry x="470" y="150" width="100" height="60" as="geometry" />
        </mxCell>
        <mxCell id="mNukyWY0nVPuf0ZmyYI_-4" value="1.4 Load New Scene" style="ellipse;whiteSpace=wrap;html=1;" vertex="1" parent="1">
          <mxGeometry x="230" y="310" width="100" height="60" as="geometry" />
        </mxCell>
        <mxCell id="mNukyWY0nVPuf0ZmyYI_-5" value="1.3 Initialize World" style="ellipse;whiteSpace=wrap;html=1;" vertex="1" parent="1">
          <mxGeometry x="470" y="310" width="100" height="60" as="geometry" />
        </mxCell>
        <mxCell id="mNukyWY0nVPuf0ZmyYI_-7" value="" style="endArrow=classic;html=1;rounded=0;entryX=0;entryY=0.5;entryDx=0;entryDy=0;exitX=1;exitY=0.5;exitDx=0;exitDy=0;" edge="1" parent="1" source="mNukyWY0nVPuf0ZmyYI_-2" target="mNukyWY0nVPuf0ZmyYI_-1">
          <mxGeometry width="50" height="50" relative="1" as="geometry">
            <mxPoint x="120" y="180" as="sourcePoint" />
            <mxPoint x="170" y="130" as="targetPoint" />
          </mxGeometry>
        </mxCell>
        <mxCell id="mNukyWY0nVPuf0ZmyYI_-8" value="" style="endArrow=classic;html=1;rounded=0;entryX=0;entryY=0.5;entryDx=0;entryDy=0;" edge="1" parent="1" target="mNukyWY0nVPuf0ZmyYI_-3">
          <mxGeometry width="50" height="50" relative="1" as="geometry">
            <mxPoint x="330" y="179.58" as="sourcePoint" />
            <mxPoint x="400" y="179.58" as="targetPoint" />
          </mxGeometry>
        </mxCell>
        <mxCell id="mNukyWY0nVPuf0ZmyYI_-9" value="" style="endArrow=classic;html=1;rounded=0;entryX=0.5;entryY=0;entryDx=0;entryDy=0;exitX=0.5;exitY=1;exitDx=0;exitDy=0;" edge="1" parent="1" source="mNukyWY0nVPuf0ZmyYI_-3" target="mNukyWY0nVPuf0ZmyYI_-5">
          <mxGeometry width="50" height="50" relative="1" as="geometry">
            <mxPoint x="510" y="280" as="sourcePoint" />
            <mxPoint x="650" y="280.42" as="targetPoint" />
          </mxGeometry>
        </mxCell>
        <mxCell id="mNukyWY0nVPuf0ZmyYI_-10" value="" style="endArrow=classic;html=1;rounded=0;entryX=1;entryY=0.5;entryDx=0;entryDy=0;exitX=0;exitY=0.5;exitDx=0;exitDy=0;" edge="1" parent="1" source="mNukyWY0nVPuf0ZmyYI_-5" target="mNukyWY0nVPuf0ZmyYI_-4">
          <mxGeometry width="50" height="50" relative="1" as="geometry">
            <mxPoint x="530" y="220" as="sourcePoint" />
            <mxPoint x="530" y="330" as="targetPoint" />
          </mxGeometry>
        </mxCell>
        <mxCell id="mNukyWY0nVPuf0ZmyYI_-11" value="8.1 Detect Interaction" style="ellipse;whiteSpace=wrap;html=1;" vertex="1" parent="1">
          <mxGeometry x="230" y="710" width="100" height="60" as="geometry" />
        </mxCell>
        <mxCell id="mNukyWY0nVPuf0ZmyYI_-12" value="8.2 Fetch NPC Data" style="ellipse;whiteSpace=wrap;html=1;" vertex="1" parent="1">
          <mxGeometry x="470" y="710" width="100" height="60" as="geometry" />
        </mxCell>
        <mxCell id="mNukyWY0nVPuf0ZmyYI_-13" value="8.3 Generate Response" style="ellipse;whiteSpace=wrap;html=1;" vertex="1" parent="1">
          <mxGeometry x="470" y="870" width="100" height="60" as="geometry" />
        </mxCell>
        <mxCell id="mNukyWY0nVPuf0ZmyYI_-14" value="8.4 Distribute Item" style="ellipse;whiteSpace=wrap;html=1;" vertex="1" parent="1">
          <mxGeometry x="230" y="870" width="100" height="60" as="geometry" />
        </mxCell>
        <mxCell id="mNukyWY0nVPuf0ZmyYI_-15" value="" style="endArrow=classic;html=1;rounded=0;entryX=0;entryY=0.5;entryDx=0;entryDy=0;" edge="1" parent="1" target="mNukyWY0nVPuf0ZmyYI_-12">
          <mxGeometry width="50" height="50" relative="1" as="geometry">
            <mxPoint x="330" y="740" as="sourcePoint" />
            <mxPoint x="380" y="690" as="targetPoint" />
          </mxGeometry>
        </mxCell>
        <mxCell id="mNukyWY0nVPuf0ZmyYI_-16" value="" style="endArrow=classic;html=1;rounded=0;entryX=1;entryY=0.5;entryDx=0;entryDy=0;exitX=0;exitY=0.5;exitDx=0;exitDy=0;" edge="1" parent="1" source="mNukyWY0nVPuf0ZmyYI_-13" target="mNukyWY0nVPuf0ZmyYI_-14">
          <mxGeometry width="50" height="50" relative="1" as="geometry">
            <mxPoint x="340" y="750" as="sourcePoint" />
            <mxPoint x="480" y="750" as="targetPoint" />
          </mxGeometry>
        </mxCell>
        <mxCell id="mNukyWY0nVPuf0ZmyYI_-17" value="" style="endArrow=classic;html=1;rounded=0;entryX=0.5;entryY=0;entryDx=0;entryDy=0;exitX=0.5;exitY=1;exitDx=0;exitDy=0;" edge="1" parent="1" source="mNukyWY0nVPuf0ZmyYI_-12" target="mNukyWY0nVPuf0ZmyYI_-13">
          <mxGeometry width="50" height="50" relative="1" as="geometry">
            <mxPoint x="480" y="910" as="sourcePoint" />
            <mxPoint x="340" y="910" as="targetPoint" />
          </mxGeometry>
        </mxCell>
        <mxCell id="mNukyWY0nVPuf0ZmyYI_-18" value="Player" style="rounded=0;whiteSpace=wrap;html=1;" vertex="1" parent="1">
          <mxGeometry y="720" width="80" height="40" as="geometry" />
        </mxCell>
        <mxCell id="mNukyWY0nVPuf0ZmyYI_-19" value="" style="endArrow=classic;html=1;rounded=0;entryX=0;entryY=0.5;entryDx=0;entryDy=0;exitX=1;exitY=0.5;exitDx=0;exitDy=0;" edge="1" parent="1" target="mNukyWY0nVPuf0ZmyYI_-11">
          <mxGeometry width="50" height="50" relative="1" as="geometry">
            <mxPoint x="80" y="739.4100000000001" as="sourcePoint" />
            <mxPoint x="190" y="739.4100000000001" as="targetPoint" />
          </mxGeometry>
        </mxCell>
        <mxCell id="mNukyWY0nVPuf0ZmyYI_-33" value="" style="group" vertex="1" connectable="0" parent="1">
          <mxGeometry x="712.5" y="160" width="97.5" height="40" as="geometry" />
        </mxCell>
        <mxCell id="mNukyWY0nVPuf0ZmyYI_-34" value="" style="endArrow=none;html=1;rounded=0;movable=1;resizable=1;rotatable=1;deletable=1;editable=1;locked=0;connectable=1;" edge="1" parent="mNukyWY0nVPuf0ZmyYI_-33">
          <mxGeometry width="50" height="50" relative="1" as="geometry">
            <mxPoint as="sourcePoint" />
            <mxPoint x="97.50000000000001" as="targetPoint" />
          </mxGeometry>
        </mxCell>
        <mxCell id="mNukyWY0nVPuf0ZmyYI_-35" value="" style="endArrow=none;html=1;rounded=0;movable=1;resizable=1;rotatable=1;deletable=1;editable=1;locked=0;connectable=1;" edge="1" parent="mNukyWY0nVPuf0ZmyYI_-33">
          <mxGeometry width="50" height="50" relative="1" as="geometry">
            <mxPoint y="40" as="sourcePoint" />
            <mxPoint x="97.50000000000001" y="40" as="targetPoint" />
          </mxGeometry>
        </mxCell>
        <mxCell id="mNukyWY0nVPuf0ZmyYI_-36" value="Setting" style="text;html=1;align=center;verticalAlign=middle;resizable=1;points=[];autosize=1;strokeColor=none;fillColor=none;movable=1;rotatable=1;deletable=1;editable=1;locked=0;connectable=1;" vertex="1" parent="mNukyWY0nVPuf0ZmyYI_-33">
          <mxGeometry x="17.703947368421055" y="5" width="61.578947368421055" height="30" as="geometry" />
        </mxCell>
        <mxCell id="mNukyWY0nVPuf0ZmyYI_-37" value="" style="endArrow=classic;html=1;rounded=0;entryX=1;entryY=0.5;entryDx=0;entryDy=0;" edge="1" parent="1" target="mNukyWY0nVPuf0ZmyYI_-3">
          <mxGeometry width="50" height="50" relative="1" as="geometry">
            <mxPoint x="720" y="180" as="sourcePoint" />
            <mxPoint x="740" y="230.5" as="targetPoint" />
          </mxGeometry>
        </mxCell>
        <mxCell id="mNukyWY0nVPuf0ZmyYI_-38" value="" style="group" vertex="1" connectable="0" parent="1">
          <mxGeometry x="470" width="100" height="40" as="geometry" />
        </mxCell>
        <mxCell id="mNukyWY0nVPuf0ZmyYI_-39" value="" style="endArrow=none;html=1;rounded=0;movable=1;resizable=1;rotatable=1;deletable=1;editable=1;locked=0;connectable=1;" edge="1" parent="mNukyWY0nVPuf0ZmyYI_-38">
          <mxGeometry width="50" height="50" relative="1" as="geometry">
            <mxPoint as="sourcePoint" />
            <mxPoint x="100" as="targetPoint" />
          </mxGeometry>
        </mxCell>
        <mxCell id="mNukyWY0nVPuf0ZmyYI_-40" value="" style="endArrow=none;html=1;rounded=0;movable=1;resizable=1;rotatable=1;deletable=1;editable=1;locked=0;connectable=1;" edge="1" parent="mNukyWY0nVPuf0ZmyYI_-38">
          <mxGeometry width="50" height="50" relative="1" as="geometry">
            <mxPoint y="40" as="sourcePoint" />
            <mxPoint x="100" y="40" as="targetPoint" />
          </mxGeometry>
        </mxCell>
        <mxCell id="mNukyWY0nVPuf0ZmyYI_-41" value="NPC" style="text;html=1;align=center;verticalAlign=middle;resizable=1;points=[];autosize=1;strokeColor=none;fillColor=none;movable=1;rotatable=1;deletable=1;editable=1;locked=0;connectable=1;" vertex="1" parent="mNukyWY0nVPuf0ZmyYI_-38">
          <mxGeometry x="23.421052631578945" y="5" width="52.63157894736842" height="30" as="geometry" />
        </mxCell>
        <mxCell id="mNukyWY0nVPuf0ZmyYI_-42" value="" style="endArrow=classic;html=1;rounded=0;entryX=0.5;entryY=0;entryDx=0;entryDy=0;exitX=0.5;exitY=1;exitDx=0;exitDy=0;" edge="1" parent="1" target="mNukyWY0nVPuf0ZmyYI_-3">
          <mxGeometry width="50" height="50" relative="1" as="geometry">
            <mxPoint x="519.6600000000001" y="40" as="sourcePoint" />
            <mxPoint x="519.6600000000001" y="140" as="targetPoint" />
          </mxGeometry>
        </mxCell>
        <mxCell id="mNukyWY0nVPuf0ZmyYI_-43" value="" style="group" vertex="1" connectable="0" parent="1">
          <mxGeometry x="710" width="100" height="40" as="geometry" />
        </mxCell>
        <mxCell id="mNukyWY0nVPuf0ZmyYI_-44" value="" style="endArrow=none;html=1;rounded=0;movable=1;resizable=1;rotatable=1;deletable=1;editable=1;locked=0;connectable=1;" edge="1" parent="mNukyWY0nVPuf0ZmyYI_-43">
          <mxGeometry width="50" height="50" relative="1" as="geometry">
            <mxPoint as="sourcePoint" />
            <mxPoint x="100" as="targetPoint" />
          </mxGeometry>
        </mxCell>
        <mxCell id="mNukyWY0nVPuf0ZmyYI_-45" value="" style="endArrow=none;html=1;rounded=0;movable=1;resizable=1;rotatable=1;deletable=1;editable=1;locked=0;connectable=1;" edge="1" parent="mNukyWY0nVPuf0ZmyYI_-43">
          <mxGeometry width="50" height="50" relative="1" as="geometry">
            <mxPoint y="40" as="sourcePoint" />
            <mxPoint x="100" y="40" as="targetPoint" />
          </mxGeometry>
        </mxCell>
        <mxCell id="mNukyWY0nVPuf0ZmyYI_-46" value="Environment" style="text;html=1;align=center;verticalAlign=middle;resizable=1;points=[];autosize=1;strokeColor=none;fillColor=none;movable=1;rotatable=1;deletable=1;editable=1;locked=0;connectable=1;" vertex="1" parent="mNukyWY0nVPuf0ZmyYI_-43">
          <mxGeometry x="2.3684210526315788" y="5" width="94.73684210526315" height="30" as="geometry" />
        </mxCell>
        <mxCell id="mNukyWY0nVPuf0ZmyYI_-47" value="" style="endArrow=classic;html=1;rounded=0;entryX=1;entryY=0;entryDx=0;entryDy=0;" edge="1" parent="1" target="mNukyWY0nVPuf0ZmyYI_-3">
          <mxGeometry width="50" height="50" relative="1" as="geometry">
            <mxPoint x="760" y="40" as="sourcePoint" />
            <mxPoint x="650.34" y="160" as="targetPoint" />
            <Array as="points">
              <mxPoint x="760" y="80" />
              <mxPoint x="555" y="80" />
            </Array>
          </mxGeometry>
        </mxCell>
        <mxCell id="mNukyWY0nVPuf0ZmyYI_-48" value="" style="group" vertex="1" connectable="0" parent="1">
          <mxGeometry x="710" y="320" width="100" height="40" as="geometry" />
        </mxCell>
        <mxCell id="mNukyWY0nVPuf0ZmyYI_-49" value="" style="endArrow=none;html=1;rounded=0;movable=1;resizable=1;rotatable=1;deletable=1;editable=1;locked=0;connectable=1;" edge="1" parent="mNukyWY0nVPuf0ZmyYI_-48">
          <mxGeometry width="50" height="50" relative="1" as="geometry">
            <mxPoint as="sourcePoint" />
            <mxPoint x="100" as="targetPoint" />
          </mxGeometry>
        </mxCell>
        <mxCell id="mNukyWY0nVPuf0ZmyYI_-50" value="" style="endArrow=none;html=1;rounded=0;movable=1;resizable=1;rotatable=1;deletable=1;editable=1;locked=0;connectable=1;" edge="1" parent="mNukyWY0nVPuf0ZmyYI_-48">
          <mxGeometry width="50" height="50" relative="1" as="geometry">
            <mxPoint y="40" as="sourcePoint" />
            <mxPoint x="100" y="40" as="targetPoint" />
          </mxGeometry>
        </mxCell>
        <mxCell id="mNukyWY0nVPuf0ZmyYI_-51" value="Player" style="text;html=1;align=center;verticalAlign=middle;resizable=1;points=[];autosize=1;strokeColor=none;fillColor=none;movable=1;rotatable=1;deletable=1;editable=1;locked=0;connectable=1;" vertex="1" parent="mNukyWY0nVPuf0ZmyYI_-48">
          <mxGeometry x="18.157894736842103" y="5" width="63.1578947368421" height="30" as="geometry" />
        </mxCell>
        <mxCell id="mNukyWY0nVPuf0ZmyYI_-56" value="" style="endArrow=classic;html=1;rounded=0;entryX=1;entryY=1;entryDx=0;entryDy=0;" edge="1" parent="1" target="mNukyWY0nVPuf0ZmyYI_-3">
          <mxGeometry width="50" height="50" relative="1" as="geometry">
            <mxPoint x="720" y="339.57" as="sourcePoint" />
            <mxPoint x="570" y="339.57" as="targetPoint" />
            <Array as="points">
              <mxPoint x="680" y="340" />
              <mxPoint x="680" y="280" />
              <mxPoint x="555" y="280" />
            </Array>
          </mxGeometry>
        </mxCell>
        <mxCell id="mNukyWY0nVPuf0ZmyYI_-62" value="&lt;font style=&quot;font-size: 9px;&quot;&gt;Input Detail&lt;/font&gt;" style="text;html=1;align=center;verticalAlign=middle;resizable=0;points=[];autosize=1;strokeColor=none;fillColor=none;" vertex="1" parent="1">
          <mxGeometry x="95" y="160" width="70" height="30" as="geometry" />
        </mxCell>
        <mxCell id="mNukyWY0nVPuf0ZmyYI_-63" value="&lt;font style=&quot;font-size: 9px;&quot;&gt;Choice Detail&lt;/font&gt;" style="text;html=1;align=center;verticalAlign=middle;resizable=0;points=[];autosize=1;strokeColor=none;fillColor=none;" vertex="1" parent="1">
          <mxGeometry x="350" y="160" width="80" height="30" as="geometry" />
        </mxCell>
        <mxCell id="mNukyWY0nVPuf0ZmyYI_-65" value="&lt;font style=&quot;font-size: 9px;&quot;&gt;NPC Detail&lt;/font&gt;" style="text;html=1;align=center;verticalAlign=middle;resizable=0;points=[];autosize=1;strokeColor=none;fillColor=none;rotation=-90;" vertex="1" parent="1">
          <mxGeometry x="479" y="81" width="70" height="30" as="geometry" />
        </mxCell>
        <mxCell id="mNukyWY0nVPuf0ZmyYI_-66" value="&lt;font style=&quot;font-size: 9px;&quot;&gt;Environment Detail&lt;/font&gt;" style="text;html=1;align=center;verticalAlign=middle;resizable=0;points=[];autosize=1;strokeColor=none;fillColor=none;" vertex="1" parent="1">
          <mxGeometry x="580" y="60" width="100" height="30" as="geometry" />
        </mxCell>
        <mxCell id="mNukyWY0nVPuf0ZmyYI_-68" value="&lt;font style=&quot;font-size: 9px;&quot;&gt;Setting Detail&lt;/font&gt;" style="text;html=1;align=center;verticalAlign=middle;resizable=0;points=[];autosize=1;strokeColor=none;fillColor=none;" vertex="1" parent="1">
          <mxGeometry x="610" y="160" width="80" height="30" as="geometry" />
        </mxCell>
        <mxCell id="mNukyWY0nVPuf0ZmyYI_-69" value="&lt;font style=&quot;font-size: 9px;&quot;&gt;Player Detail&lt;/font&gt;" style="text;html=1;align=center;verticalAlign=middle;resizable=0;points=[];autosize=1;strokeColor=none;fillColor=none;" vertex="1" parent="1">
          <mxGeometry x="585" y="260" width="70" height="30" as="geometry" />
        </mxCell>
        <mxCell id="mNukyWY0nVPuf0ZmyYI_-71" value="&lt;font style=&quot;font-size: 9px;&quot;&gt;NPC Detail&lt;/font&gt;" style="text;html=1;align=center;verticalAlign=middle;resizable=0;points=[];autosize=1;strokeColor=none;fillColor=none;rotation=-90;" vertex="1" parent="1">
          <mxGeometry x="479" y="240" width="70" height="30" as="geometry" />
        </mxCell>
        <mxCell id="mNukyWY0nVPuf0ZmyYI_-72" value="" style="endArrow=classic;html=1;rounded=0;entryX=0.7;entryY=0.045;entryDx=0;entryDy=0;entryPerimeter=0;exitX=0.704;exitY=0.955;exitDx=0;exitDy=0;exitPerimeter=0;" edge="1" parent="1" source="mNukyWY0nVPuf0ZmyYI_-3" target="mNukyWY0nVPuf0ZmyYI_-5">
          <mxGeometry width="50" height="50" relative="1" as="geometry">
            <mxPoint x="540" y="210" as="sourcePoint" />
            <mxPoint x="540" y="310" as="targetPoint" />
          </mxGeometry>
        </mxCell>
        <mxCell id="mNukyWY0nVPuf0ZmyYI_-73" value="&lt;font style=&quot;font-size: 9px;&quot;&gt;Environment Detail&lt;/font&gt;" style="text;html=1;align=center;verticalAlign=middle;resizable=0;points=[];autosize=1;strokeColor=none;fillColor=none;rotation=-90;" vertex="1" parent="1">
          <mxGeometry x="485" y="240" width="100" height="30" as="geometry" />
        </mxCell>
        <mxCell id="mNukyWY0nVPuf0ZmyYI_-74" value="" style="endArrow=classic;html=1;rounded=0;exitX=0.297;exitY=0.962;exitDx=0;exitDy=0;exitPerimeter=0;entryX=0.309;entryY=0.045;entryDx=0;entryDy=0;entryPerimeter=0;" edge="1" parent="1" source="mNukyWY0nVPuf0ZmyYI_-3" target="mNukyWY0nVPuf0ZmyYI_-5">
          <mxGeometry width="50" height="50" relative="1" as="geometry">
            <mxPoint x="500" y="210" as="sourcePoint" />
            <mxPoint x="500" y="310" as="targetPoint" />
          </mxGeometry>
        </mxCell>
        <mxCell id="mNukyWY0nVPuf0ZmyYI_-75" value="&lt;font size=&quot;1&quot;&gt;Setting Detail&lt;/font&gt;" style="text;html=1;align=center;verticalAlign=middle;resizable=0;points=[];autosize=1;strokeColor=none;fillColor=none;rotation=-90;" vertex="1" parent="1">
          <mxGeometry x="455" y="240" width="80" height="30" as="geometry" />
        </mxCell>
        <mxCell id="mNukyWY0nVPuf0ZmyYI_-79" value="" style="endArrow=classic;html=1;rounded=0;exitX=0;exitY=1;exitDx=0;exitDy=0;entryX=0;entryY=0;entryDx=0;entryDy=0;" edge="1" parent="1" source="mNukyWY0nVPuf0ZmyYI_-3" target="mNukyWY0nVPuf0ZmyYI_-5">
          <mxGeometry width="50" height="50" relative="1" as="geometry">
            <mxPoint x="485" y="210" as="sourcePoint" />
            <mxPoint x="485" y="320" as="targetPoint" />
          </mxGeometry>
        </mxCell>
        <mxCell id="mNukyWY0nVPuf0ZmyYI_-82" value="&lt;font size=&quot;1&quot;&gt;Player Detail&lt;/font&gt;" style="text;html=1;align=center;verticalAlign=middle;resizable=0;points=[];autosize=1;strokeColor=none;fillColor=none;rotation=-90;" vertex="1" parent="1">
          <mxGeometry x="440" y="240" width="80" height="30" as="geometry" />
        </mxCell>
        <mxCell id="mNukyWY0nVPuf0ZmyYI_-83" value="" style="endArrow=classic;html=1;rounded=0;entryX=0.5;entryY=1;entryDx=0;entryDy=0;exitX=0;exitY=0.5;exitDx=0;exitDy=0;" edge="1" parent="1" source="mNukyWY0nVPuf0ZmyYI_-4" target="mNukyWY0nVPuf0ZmyYI_-2">
          <mxGeometry width="50" height="50" relative="1" as="geometry">
            <mxPoint x="190" y="339.58" as="sourcePoint" />
            <mxPoint x="50" y="339.58" as="targetPoint" />
            <Array as="points">
              <mxPoint x="40" y="340" />
            </Array>
          </mxGeometry>
        </mxCell>
        <mxCell id="mNukyWY0nVPuf0ZmyYI_-84" value="&lt;font style=&quot;font-size: 9px;&quot;&gt;Show World&lt;/font&gt;" style="text;html=1;align=center;verticalAlign=middle;resizable=0;points=[];autosize=1;strokeColor=none;fillColor=none;" vertex="1" parent="1">
          <mxGeometry x="70" y="320" width="70" height="30" as="geometry" />
        </mxCell>
        <mxCell id="mNukyWY0nVPuf0ZmyYI_-86" value="&lt;font style=&quot;font-size: 9px;&quot;&gt;Render Details&lt;/font&gt;" style="text;html=1;align=center;verticalAlign=middle;resizable=0;points=[];autosize=1;strokeColor=none;fillColor=none;" vertex="1" parent="1">
          <mxGeometry x="370" y="320" width="80" height="30" as="geometry" />
        </mxCell>
        <mxCell id="mNukyWY0nVPuf0ZmyYI_-87" value="" style="group" vertex="1" connectable="0" parent="1">
          <mxGeometry x="230" y="560" width="100" height="40" as="geometry" />
        </mxCell>
        <mxCell id="mNukyWY0nVPuf0ZmyYI_-88" value="" style="endArrow=none;html=1;rounded=0;movable=1;resizable=1;rotatable=1;deletable=1;editable=1;locked=0;connectable=1;" edge="1" parent="mNukyWY0nVPuf0ZmyYI_-87">
          <mxGeometry width="50" height="50" relative="1" as="geometry">
            <mxPoint as="sourcePoint" />
            <mxPoint x="100" as="targetPoint" />
          </mxGeometry>
        </mxCell>
        <mxCell id="mNukyWY0nVPuf0ZmyYI_-89" value="" style="endArrow=none;html=1;rounded=0;movable=1;resizable=1;rotatable=1;deletable=1;editable=1;locked=0;connectable=1;" edge="1" parent="mNukyWY0nVPuf0ZmyYI_-87">
          <mxGeometry width="50" height="50" relative="1" as="geometry">
            <mxPoint y="40" as="sourcePoint" />
            <mxPoint x="100" y="40" as="targetPoint" />
          </mxGeometry>
        </mxCell>
        <mxCell id="mNukyWY0nVPuf0ZmyYI_-90" value="NPC" style="text;html=1;align=center;verticalAlign=middle;resizable=1;points=[];autosize=1;strokeColor=none;fillColor=none;movable=1;rotatable=1;deletable=1;editable=1;locked=0;connectable=1;" vertex="1" parent="mNukyWY0nVPuf0ZmyYI_-87">
          <mxGeometry x="24.421052631578945" y="5" width="50" height="30" as="geometry" />
        </mxCell>
        <mxCell id="mNukyWY0nVPuf0ZmyYI_-91" value="" style="group" vertex="1" connectable="0" parent="1">
          <mxGeometry x="470" y="560" width="100" height="40" as="geometry" />
        </mxCell>
        <mxCell id="mNukyWY0nVPuf0ZmyYI_-92" value="" style="endArrow=none;html=1;rounded=0;movable=1;resizable=1;rotatable=1;deletable=1;editable=1;locked=0;connectable=1;" edge="1" parent="mNukyWY0nVPuf0ZmyYI_-91">
          <mxGeometry width="50" height="50" relative="1" as="geometry">
            <mxPoint as="sourcePoint" />
            <mxPoint x="100" as="targetPoint" />
          </mxGeometry>
        </mxCell>
        <mxCell id="mNukyWY0nVPuf0ZmyYI_-93" value="" style="endArrow=none;html=1;rounded=0;movable=1;resizable=1;rotatable=1;deletable=1;editable=1;locked=0;connectable=1;" edge="1" parent="mNukyWY0nVPuf0ZmyYI_-91">
          <mxGeometry width="50" height="50" relative="1" as="geometry">
            <mxPoint y="40" as="sourcePoint" />
            <mxPoint x="100" y="40" as="targetPoint" />
          </mxGeometry>
        </mxCell>
        <mxCell id="mNukyWY0nVPuf0ZmyYI_-94" value="Item" style="text;html=1;align=center;verticalAlign=middle;resizable=1;points=[];autosize=1;strokeColor=none;fillColor=none;movable=1;rotatable=1;deletable=1;editable=1;locked=0;connectable=1;" vertex="1" parent="mNukyWY0nVPuf0ZmyYI_-91">
          <mxGeometry x="23.421052631578945" y="5" width="52.63157894736842" height="30" as="geometry" />
        </mxCell>
        <mxCell id="mNukyWY0nVPuf0ZmyYI_-95" value="" style="group" vertex="1" connectable="0" parent="1">
          <mxGeometry x="235" y="1040" width="90" height="40" as="geometry" />
        </mxCell>
        <mxCell id="mNukyWY0nVPuf0ZmyYI_-96" value="" style="endArrow=none;html=1;rounded=0;movable=1;resizable=1;rotatable=1;deletable=1;editable=1;locked=0;connectable=1;" edge="1" parent="mNukyWY0nVPuf0ZmyYI_-95">
          <mxGeometry width="50" height="50" relative="1" as="geometry">
            <mxPoint as="sourcePoint" />
            <mxPoint x="90" as="targetPoint" />
          </mxGeometry>
        </mxCell>
        <mxCell id="mNukyWY0nVPuf0ZmyYI_-97" value="" style="endArrow=none;html=1;rounded=0;movable=1;resizable=1;rotatable=1;deletable=1;editable=1;locked=0;connectable=1;" edge="1" parent="mNukyWY0nVPuf0ZmyYI_-95">
          <mxGeometry width="50" height="50" relative="1" as="geometry">
            <mxPoint y="40" as="sourcePoint" />
            <mxPoint x="90" y="40" as="targetPoint" />
          </mxGeometry>
        </mxCell>
        <mxCell id="mNukyWY0nVPuf0ZmyYI_-98" value="Inventory" style="text;html=1;align=center;verticalAlign=middle;resizable=1;points=[];autosize=1;strokeColor=none;fillColor=none;movable=1;rotatable=1;deletable=1;editable=1;locked=0;connectable=1;" vertex="1" parent="mNukyWY0nVPuf0ZmyYI_-95">
          <mxGeometry x="10.078947368421051" y="5" width="70" height="30" as="geometry" />
        </mxCell>
        <mxCell id="mNukyWY0nVPuf0ZmyYI_-99" value="&lt;font style=&quot;font-size: 9px;&quot;&gt;Input Detail&lt;/font&gt;" style="text;html=1;align=center;verticalAlign=middle;resizable=0;points=[];autosize=1;strokeColor=none;fillColor=none;" vertex="1" parent="1">
          <mxGeometry x="120" y="720" width="70" height="30" as="geometry" />
        </mxCell>
        <mxCell id="mNukyWY0nVPuf0ZmyYI_-100" value="" style="endArrow=classic;html=1;rounded=0;entryX=0.157;entryY=0.143;entryDx=0;entryDy=0;entryPerimeter=0;" edge="1" parent="1" target="mNukyWY0nVPuf0ZmyYI_-12">
          <mxGeometry width="50" height="50" relative="1" as="geometry">
            <mxPoint x="280" y="600" as="sourcePoint" />
            <mxPoint x="490" y="710" as="targetPoint" />
            <Array as="points">
              <mxPoint x="280" y="660" />
              <mxPoint x="485" y="660" />
            </Array>
          </mxGeometry>
        </mxCell>
        <mxCell id="mNukyWY0nVPuf0ZmyYI_-101" value="" style="endArrow=classic;html=1;rounded=0;entryX=0.5;entryY=0;entryDx=0;entryDy=0;exitX=0.5;exitY=1;exitDx=0;exitDy=0;" edge="1" parent="1" target="mNukyWY0nVPuf0ZmyYI_-12">
          <mxGeometry width="50" height="50" relative="1" as="geometry">
            <mxPoint x="519.8299999999999" y="600" as="sourcePoint" />
            <mxPoint x="519.8299999999999" y="700" as="targetPoint" />
          </mxGeometry>
        </mxCell>
        <mxCell id="mNukyWY0nVPuf0ZmyYI_-102" value="&lt;font style=&quot;font-size: 9px;&quot;&gt;NPC Detail&lt;/font&gt;" style="text;html=1;align=center;verticalAlign=middle;resizable=0;points=[];autosize=1;strokeColor=none;fillColor=none;" vertex="1" parent="1">
          <mxGeometry x="340" y="640" width="70" height="30" as="geometry" />
        </mxCell>
        <mxCell id="mNukyWY0nVPuf0ZmyYI_-103" value="&lt;font style=&quot;font-size: 9px;&quot;&gt;Item Detail&lt;/font&gt;" style="text;html=1;align=center;verticalAlign=middle;resizable=0;points=[];autosize=1;strokeColor=none;fillColor=none;rotation=-90;" vertex="1" parent="1">
          <mxGeometry x="480" y="640" width="70" height="30" as="geometry" />
        </mxCell>
        <mxCell id="mNukyWY0nVPuf0ZmyYI_-108" value="" style="endArrow=classic;html=1;rounded=0;entryX=0.5;entryY=1;entryDx=0;entryDy=0;exitX=0;exitY=0.5;exitDx=0;exitDy=0;" edge="1" parent="1" target="mNukyWY0nVPuf0ZmyYI_-18">
          <mxGeometry width="50" height="50" relative="1" as="geometry">
            <mxPoint x="230" y="899.66" as="sourcePoint" />
            <mxPoint x="90" y="899.66" as="targetPoint" />
            <Array as="points">
              <mxPoint x="40" y="900" />
            </Array>
          </mxGeometry>
        </mxCell>
        <mxCell id="mNukyWY0nVPuf0ZmyYI_-110" value="&lt;font style=&quot;font-size: 9px;&quot;&gt;Choice Detail&lt;/font&gt;" style="text;html=1;align=center;verticalAlign=middle;resizable=0;points=[];autosize=1;strokeColor=none;fillColor=none;" vertex="1" parent="1">
          <mxGeometry x="360" y="720" width="80" height="30" as="geometry" />
        </mxCell>
        <mxCell id="mNukyWY0nVPuf0ZmyYI_-111" value="&lt;font style=&quot;font-size: 9px;&quot;&gt;Item Detail&lt;/font&gt;" style="text;html=1;align=center;verticalAlign=middle;resizable=0;points=[];autosize=1;strokeColor=none;fillColor=none;rotation=-90;" vertex="1" parent="1">
          <mxGeometry x="479" y="800" width="70" height="30" as="geometry" />
        </mxCell>
        <mxCell id="mNukyWY0nVPuf0ZmyYI_-112" value="" style="endArrow=classic;html=1;rounded=0;entryX=0.5;entryY=0;entryDx=0;entryDy=0;exitX=0.649;exitY=0.98;exitDx=0;exitDy=0;exitPerimeter=0;" edge="1" parent="1" source="mNukyWY0nVPuf0ZmyYI_-12">
          <mxGeometry width="50" height="50" relative="1" as="geometry">
            <mxPoint x="535" y="770" as="sourcePoint" />
            <mxPoint x="535" y="870" as="targetPoint" />
          </mxGeometry>
        </mxCell>
        <mxCell id="mNukyWY0nVPuf0ZmyYI_-113" value="&lt;font style=&quot;font-size: 9px;&quot;&gt;NPC Detail&lt;/font&gt;" style="text;html=1;align=center;verticalAlign=middle;resizable=0;points=[];autosize=1;strokeColor=none;fillColor=none;rotation=-90;" vertex="1" parent="1">
          <mxGeometry x="494" y="800" width="70" height="30" as="geometry" />
        </mxCell>
        <mxCell id="mNukyWY0nVPuf0ZmyYI_-114" value="&lt;font size=&quot;1&quot;&gt;IF [&quot;Reward&quot;]&lt;/font&gt;" style="text;html=1;align=center;verticalAlign=middle;resizable=0;points=[];autosize=1;strokeColor=none;fillColor=none;" vertex="1" parent="1">
          <mxGeometry x="360" y="880" width="80" height="30" as="geometry" />
        </mxCell>
        <mxCell id="mNukyWY0nVPuf0ZmyYI_-115" value="&lt;font style=&quot;font-size: 9px;&quot;&gt;Modify Inventory&lt;/font&gt;" style="text;html=1;align=center;verticalAlign=middle;resizable=0;points=[];autosize=1;strokeColor=none;fillColor=none;rotation=-90;" vertex="1" parent="1">
          <mxGeometry x="229" y="972" width="90" height="30" as="geometry" />
        </mxCell>
        <mxCell id="mNukyWY0nVPuf0ZmyYI_-116" value="&lt;font style=&quot;font-size: 9px;&quot;&gt;Item Detail&lt;/font&gt;" style="text;html=1;align=center;verticalAlign=middle;resizable=0;points=[];autosize=1;strokeColor=none;fillColor=none;" vertex="1" parent="1">
          <mxGeometry x="95" y="880" width="70" height="30" as="geometry" />
        </mxCell>
        <mxCell id="mNukyWY0nVPuf0ZmyYI_-117" value="" style="endArrow=classic;html=1;rounded=0;entryX=0.5;entryY=1;entryDx=0;entryDy=0;exitX=0.203;exitY=0.097;exitDx=0;exitDy=0;exitPerimeter=0;" edge="1" parent="1" source="mNukyWY0nVPuf0ZmyYI_-13">
          <mxGeometry width="50" height="50" relative="1" as="geometry">
            <mxPoint x="250" y="899.66" as="sourcePoint" />
            <mxPoint x="60" y="760" as="targetPoint" />
            <Array as="points">
              <mxPoint x="490" y="860" />
              <mxPoint x="60" y="860" />
            </Array>
          </mxGeometry>
        </mxCell>
        <mxCell id="mNukyWY0nVPuf0ZmyYI_-119" value="&lt;font style=&quot;font-size: 9px;&quot;&gt;Show Dialouge&lt;/font&gt;" style="text;html=1;align=center;verticalAlign=middle;resizable=0;points=[];autosize=1;strokeColor=none;fillColor=none;" vertex="1" parent="1">
          <mxGeometry x="229" y="840" width="80" height="30" as="geometry" />
        </mxCell>
        <mxCell id="mNukyWY0nVPuf0ZmyYI_-121" value="" style="endArrow=classic;html=1;rounded=0;entryX=0.25;entryY=1;entryDx=0;entryDy=0;exitX=0.114;exitY=0.821;exitDx=0;exitDy=0;exitPerimeter=0;" edge="1" parent="1" source="mNukyWY0nVPuf0ZmyYI_-14" target="mNukyWY0nVPuf0ZmyYI_-18">
          <mxGeometry width="50" height="50" relative="1" as="geometry">
            <mxPoint x="230" y="909.66" as="sourcePoint" />
            <mxPoint x="40" y="770" as="targetPoint" />
            <Array as="points">
              <mxPoint x="20" y="920" />
            </Array>
          </mxGeometry>
        </mxCell>
        <mxCell id="mNukyWY0nVPuf0ZmyYI_-122" value="&lt;font style=&quot;font-size: 9px;&quot;&gt;Show Dialouge&lt;/font&gt;" style="text;html=1;align=center;verticalAlign=middle;resizable=0;points=[];autosize=1;strokeColor=none;fillColor=none;" vertex="1" parent="1">
          <mxGeometry x="95" y="900" width="80" height="30" as="geometry" />
        </mxCell>
        <mxCell id="mNukyWY0nVPuf0ZmyYI_-123" value="" style="endArrow=classic;html=1;rounded=0;exitX=0.5;exitY=1;exitDx=0;exitDy=0;" edge="1" parent="1" source="mNukyWY0nVPuf0ZmyYI_-14">
          <mxGeometry width="50" height="50" relative="1" as="geometry">
            <mxPoint x="290" y="1050" as="sourcePoint" />
            <mxPoint x="280" y="1040" as="targetPoint" />
          </mxGeometry>
        </mxCell>
        <mxCell id="mNukyWY0nVPuf0ZmyYI_-124" value="&lt;font size=&quot;1&quot;&gt;Item Detail&lt;/font&gt;" style="text;html=1;align=center;verticalAlign=middle;resizable=0;points=[];autosize=1;strokeColor=none;fillColor=none;" vertex="1" parent="1">
          <mxGeometry x="365" y="890" width="70" height="30" as="geometry" />
        </mxCell>
        <mxCell id="mNukyWY0nVPuf0ZmyYI_-174" value="7.1 Detect Interaction" style="ellipse;whiteSpace=wrap;html=1;" vertex="1" parent="1">
          <mxGeometry x="250" y="1390" width="100" height="60" as="geometry" />
        </mxCell>
        <mxCell id="mNukyWY0nVPuf0ZmyYI_-175" value="7.2 Fetch Environment Data" style="ellipse;whiteSpace=wrap;html=1;" vertex="1" parent="1">
          <mxGeometry x="510" y="1390" width="100" height="60" as="geometry" />
        </mxCell>
        <mxCell id="mNukyWY0nVPuf0ZmyYI_-176" value="7.3 Generate Response" style="ellipse;whiteSpace=wrap;html=1;" vertex="1" parent="1">
          <mxGeometry x="510" y="1550" width="100" height="60" as="geometry" />
        </mxCell>
        <mxCell id="mNukyWY0nVPuf0ZmyYI_-177" value="7.4 Distribute Item" style="ellipse;whiteSpace=wrap;html=1;" vertex="1" parent="1">
          <mxGeometry x="250" y="1550" width="100" height="60" as="geometry" />
        </mxCell>
        <mxCell id="mNukyWY0nVPuf0ZmyYI_-178" value="" style="endArrow=classic;html=1;rounded=0;entryX=0;entryY=0.5;entryDx=0;entryDy=0;" edge="1" parent="1" target="mNukyWY0nVPuf0ZmyYI_-175">
          <mxGeometry width="50" height="50" relative="1" as="geometry">
            <mxPoint x="350" y="1420" as="sourcePoint" />
            <mxPoint x="400" y="1370" as="targetPoint" />
          </mxGeometry>
        </mxCell>
        <mxCell id="mNukyWY0nVPuf0ZmyYI_-179" value="" style="endArrow=classic;html=1;rounded=0;entryX=1;entryY=0.5;entryDx=0;entryDy=0;exitX=0;exitY=0.5;exitDx=0;exitDy=0;" edge="1" parent="1" source="mNukyWY0nVPuf0ZmyYI_-176" target="mNukyWY0nVPuf0ZmyYI_-177">
          <mxGeometry width="50" height="50" relative="1" as="geometry">
            <mxPoint x="360" y="1430" as="sourcePoint" />
            <mxPoint x="500" y="1430" as="targetPoint" />
          </mxGeometry>
        </mxCell>
        <mxCell id="mNukyWY0nVPuf0ZmyYI_-180" value="" style="endArrow=classic;html=1;rounded=0;entryX=0.5;entryY=0;entryDx=0;entryDy=0;exitX=0.5;exitY=1;exitDx=0;exitDy=0;" edge="1" parent="1" source="mNukyWY0nVPuf0ZmyYI_-175" target="mNukyWY0nVPuf0ZmyYI_-176">
          <mxGeometry width="50" height="50" relative="1" as="geometry">
            <mxPoint x="500" y="1590" as="sourcePoint" />
            <mxPoint x="360" y="1590" as="targetPoint" />
          </mxGeometry>
        </mxCell>
        <mxCell id="mNukyWY0nVPuf0ZmyYI_-181" value="Player" style="rounded=0;whiteSpace=wrap;html=1;" vertex="1" parent="1">
          <mxGeometry x="20" y="1400" width="80" height="40" as="geometry" />
        </mxCell>
        <mxCell id="mNukyWY0nVPuf0ZmyYI_-182" value="" style="endArrow=classic;html=1;rounded=0;entryX=0;entryY=0.5;entryDx=0;entryDy=0;exitX=1;exitY=0.5;exitDx=0;exitDy=0;" edge="1" parent="1" target="mNukyWY0nVPuf0ZmyYI_-174">
          <mxGeometry width="50" height="50" relative="1" as="geometry">
            <mxPoint x="100" y="1419.41" as="sourcePoint" />
            <mxPoint x="210" y="1419.41" as="targetPoint" />
          </mxGeometry>
        </mxCell>
        <mxCell id="mNukyWY0nVPuf0ZmyYI_-183" value="" style="group" vertex="1" connectable="0" parent="1">
          <mxGeometry x="250" y="1240" width="100" height="40" as="geometry" />
        </mxCell>
        <mxCell id="mNukyWY0nVPuf0ZmyYI_-184" value="" style="endArrow=none;html=1;rounded=0;movable=1;resizable=1;rotatable=1;deletable=1;editable=1;locked=0;connectable=1;" edge="1" parent="mNukyWY0nVPuf0ZmyYI_-183">
          <mxGeometry width="50" height="50" relative="1" as="geometry">
            <mxPoint as="sourcePoint" />
            <mxPoint x="100" as="targetPoint" />
          </mxGeometry>
        </mxCell>
        <mxCell id="mNukyWY0nVPuf0ZmyYI_-185" value="" style="endArrow=none;html=1;rounded=0;movable=1;resizable=1;rotatable=1;deletable=1;editable=1;locked=0;connectable=1;" edge="1" parent="mNukyWY0nVPuf0ZmyYI_-183">
          <mxGeometry width="50" height="50" relative="1" as="geometry">
            <mxPoint y="40" as="sourcePoint" />
            <mxPoint x="100" y="40" as="targetPoint" />
          </mxGeometry>
        </mxCell>
        <mxCell id="mNukyWY0nVPuf0ZmyYI_-186" value="Environment" style="text;html=1;align=center;verticalAlign=middle;resizable=1;points=[];autosize=1;strokeColor=none;fillColor=none;movable=1;rotatable=1;deletable=1;editable=1;locked=0;connectable=1;" vertex="1" parent="mNukyWY0nVPuf0ZmyYI_-183">
          <mxGeometry x="4.421052631578945" y="5" width="90" height="30" as="geometry" />
        </mxCell>
        <mxCell id="mNukyWY0nVPuf0ZmyYI_-187" value="" style="group" vertex="1" connectable="0" parent="1">
          <mxGeometry x="510" y="1720" width="100" height="40" as="geometry" />
        </mxCell>
        <mxCell id="mNukyWY0nVPuf0ZmyYI_-188" value="" style="endArrow=none;html=1;rounded=0;movable=1;resizable=1;rotatable=1;deletable=1;editable=1;locked=0;connectable=1;" edge="1" parent="mNukyWY0nVPuf0ZmyYI_-187">
          <mxGeometry width="50" height="50" relative="1" as="geometry">
            <mxPoint as="sourcePoint" />
            <mxPoint x="100" as="targetPoint" />
          </mxGeometry>
        </mxCell>
        <mxCell id="mNukyWY0nVPuf0ZmyYI_-189" value="" style="endArrow=none;html=1;rounded=0;movable=1;resizable=1;rotatable=1;deletable=1;editable=1;locked=0;connectable=1;" edge="1" parent="mNukyWY0nVPuf0ZmyYI_-187">
          <mxGeometry width="50" height="50" relative="1" as="geometry">
            <mxPoint y="40" as="sourcePoint" />
            <mxPoint x="100" y="40" as="targetPoint" />
          </mxGeometry>
        </mxCell>
        <mxCell id="mNukyWY0nVPuf0ZmyYI_-190" value="Item" style="text;html=1;align=center;verticalAlign=middle;resizable=1;points=[];autosize=1;strokeColor=none;fillColor=none;movable=1;rotatable=1;deletable=1;editable=1;locked=0;connectable=1;" vertex="1" parent="mNukyWY0nVPuf0ZmyYI_-187">
          <mxGeometry x="23.421052631578945" y="5" width="52.63157894736842" height="30" as="geometry" />
        </mxCell>
        <mxCell id="mNukyWY0nVPuf0ZmyYI_-191" value="" style="group" vertex="1" connectable="0" parent="1">
          <mxGeometry x="255" y="1720" width="90" height="40" as="geometry" />
        </mxCell>
        <mxCell id="mNukyWY0nVPuf0ZmyYI_-192" value="" style="endArrow=none;html=1;rounded=0;movable=1;resizable=1;rotatable=1;deletable=1;editable=1;locked=0;connectable=1;" edge="1" parent="mNukyWY0nVPuf0ZmyYI_-191">
          <mxGeometry width="50" height="50" relative="1" as="geometry">
            <mxPoint as="sourcePoint" />
            <mxPoint x="90" as="targetPoint" />
          </mxGeometry>
        </mxCell>
        <mxCell id="mNukyWY0nVPuf0ZmyYI_-193" value="" style="endArrow=none;html=1;rounded=0;movable=1;resizable=1;rotatable=1;deletable=1;editable=1;locked=0;connectable=1;" edge="1" parent="mNukyWY0nVPuf0ZmyYI_-191">
          <mxGeometry width="50" height="50" relative="1" as="geometry">
            <mxPoint y="40" as="sourcePoint" />
            <mxPoint x="90" y="40" as="targetPoint" />
          </mxGeometry>
        </mxCell>
        <mxCell id="mNukyWY0nVPuf0ZmyYI_-194" value="Inventory" style="text;html=1;align=center;verticalAlign=middle;resizable=1;points=[];autosize=1;strokeColor=none;fillColor=none;movable=1;rotatable=1;deletable=1;editable=1;locked=0;connectable=1;" vertex="1" parent="mNukyWY0nVPuf0ZmyYI_-191">
          <mxGeometry x="10.078947368421051" y="5" width="70" height="30" as="geometry" />
        </mxCell>
        <mxCell id="mNukyWY0nVPuf0ZmyYI_-195" value="&lt;font style=&quot;font-size: 9px;&quot;&gt;Input Detail&lt;/font&gt;" style="text;html=1;align=center;verticalAlign=middle;resizable=0;points=[];autosize=1;strokeColor=none;fillColor=none;" vertex="1" parent="1">
          <mxGeometry x="140" y="1400" width="70" height="30" as="geometry" />
        </mxCell>
        <mxCell id="mNukyWY0nVPuf0ZmyYI_-196" value="" style="endArrow=classic;html=1;rounded=0;entryX=0.157;entryY=0.143;entryDx=0;entryDy=0;entryPerimeter=0;" edge="1" parent="1" target="mNukyWY0nVPuf0ZmyYI_-175">
          <mxGeometry width="50" height="50" relative="1" as="geometry">
            <mxPoint x="300" y="1280" as="sourcePoint" />
            <mxPoint x="510" y="1390" as="targetPoint" />
            <Array as="points">
              <mxPoint x="300" y="1340" />
              <mxPoint x="526" y="1340" />
            </Array>
          </mxGeometry>
        </mxCell>
        <mxCell id="mNukyWY0nVPuf0ZmyYI_-197" value="" style="endArrow=classic;html=1;rounded=0;entryX=0.5;entryY=1;entryDx=0;entryDy=0;" edge="1" parent="1">
          <mxGeometry width="50" height="50" relative="1" as="geometry">
            <mxPoint x="559.7" y="1720" as="sourcePoint" />
            <mxPoint x="559.7" y="1610" as="targetPoint" />
            <Array as="points">
              <mxPoint x="559.7" y="1680" />
            </Array>
          </mxGeometry>
        </mxCell>
        <mxCell id="mNukyWY0nVPuf0ZmyYI_-198" value="&lt;font style=&quot;font-size: 9px;&quot;&gt;Environment Detail&lt;/font&gt;" style="text;html=1;align=center;verticalAlign=middle;resizable=0;points=[];autosize=1;strokeColor=none;fillColor=none;" vertex="1" parent="1">
          <mxGeometry x="345" y="1320" width="100" height="30" as="geometry" />
        </mxCell>
        <mxCell id="mNukyWY0nVPuf0ZmyYI_-199" value="&lt;font style=&quot;font-size: 9px;&quot;&gt;Item Detail&lt;/font&gt;" style="text;html=1;align=center;verticalAlign=middle;resizable=0;points=[];autosize=1;strokeColor=none;fillColor=none;rotation=0;" vertex="1" parent="1">
          <mxGeometry x="370" y="1660" width="70" height="30" as="geometry" />
        </mxCell>
        <mxCell id="mNukyWY0nVPuf0ZmyYI_-200" value="" style="endArrow=classic;html=1;rounded=0;entryX=0.5;entryY=1;entryDx=0;entryDy=0;exitX=0;exitY=0.5;exitDx=0;exitDy=0;" edge="1" parent="1" target="mNukyWY0nVPuf0ZmyYI_-181">
          <mxGeometry width="50" height="50" relative="1" as="geometry">
            <mxPoint x="250" y="1579.6599999999999" as="sourcePoint" />
            <mxPoint x="110" y="1579.6599999999999" as="targetPoint" />
            <Array as="points">
              <mxPoint x="60" y="1580" />
            </Array>
          </mxGeometry>
        </mxCell>
        <mxCell id="mNukyWY0nVPuf0ZmyYI_-201" value="&lt;font style=&quot;font-size: 9px;&quot;&gt;Choice Detail&lt;/font&gt;" style="text;html=1;align=center;verticalAlign=middle;resizable=0;points=[];autosize=1;strokeColor=none;fillColor=none;" vertex="1" parent="1">
          <mxGeometry x="380" y="1400" width="80" height="30" as="geometry" />
        </mxCell>
        <mxCell id="mNukyWY0nVPuf0ZmyYI_-202" value="&lt;font style=&quot;font-size: 9px;&quot;&gt;Item Detail&lt;/font&gt;" style="text;html=1;align=center;verticalAlign=middle;resizable=0;points=[];autosize=1;strokeColor=none;fillColor=none;rotation=-90;" vertex="1" parent="1">
          <mxGeometry x="499" y="1480" width="70" height="30" as="geometry" />
        </mxCell>
        <mxCell id="mNukyWY0nVPuf0ZmyYI_-203" value="" style="endArrow=classic;html=1;rounded=0;entryX=0.649;entryY=0.021;entryDx=0;entryDy=0;exitX=0.649;exitY=0.98;exitDx=0;exitDy=0;exitPerimeter=0;entryPerimeter=0;" edge="1" parent="1" source="mNukyWY0nVPuf0ZmyYI_-175" target="mNukyWY0nVPuf0ZmyYI_-176">
          <mxGeometry width="50" height="50" relative="1" as="geometry">
            <mxPoint x="555" y="1450" as="sourcePoint" />
            <mxPoint x="555" y="1550" as="targetPoint" />
          </mxGeometry>
        </mxCell>
        <mxCell id="mNukyWY0nVPuf0ZmyYI_-204" value="&lt;font style=&quot;font-size: 9px;&quot;&gt;Environment Detail&lt;/font&gt;" style="text;html=1;align=center;verticalAlign=middle;resizable=0;points=[];autosize=1;strokeColor=none;fillColor=none;rotation=-90;" vertex="1" parent="1">
          <mxGeometry x="499" y="1480" width="100" height="30" as="geometry" />
        </mxCell>
        <mxCell id="mNukyWY0nVPuf0ZmyYI_-205" value="&lt;font size=&quot;1&quot;&gt;IF [&quot;Item&quot;]&lt;/font&gt;" style="text;html=1;align=center;verticalAlign=middle;resizable=0;points=[];autosize=1;strokeColor=none;fillColor=none;" vertex="1" parent="1">
          <mxGeometry x="385" y="1560" width="70" height="30" as="geometry" />
        </mxCell>
        <mxCell id="mNukyWY0nVPuf0ZmyYI_-206" value="&lt;font style=&quot;font-size: 9px;&quot;&gt;Modify Inventory&lt;/font&gt;" style="text;html=1;align=center;verticalAlign=middle;resizable=0;points=[];autosize=1;strokeColor=none;fillColor=none;rotation=-90;" vertex="1" parent="1">
          <mxGeometry x="249" y="1652" width="90" height="30" as="geometry" />
        </mxCell>
        <mxCell id="mNukyWY0nVPuf0ZmyYI_-207" value="&lt;font style=&quot;font-size: 9px;&quot;&gt;Item Detail&lt;/font&gt;" style="text;html=1;align=center;verticalAlign=middle;resizable=0;points=[];autosize=1;strokeColor=none;fillColor=none;" vertex="1" parent="1">
          <mxGeometry x="115" y="1560" width="70" height="30" as="geometry" />
        </mxCell>
        <mxCell id="mNukyWY0nVPuf0ZmyYI_-208" value="" style="endArrow=classic;html=1;rounded=0;entryX=0.5;entryY=1;entryDx=0;entryDy=0;exitX=0.203;exitY=0.097;exitDx=0;exitDy=0;exitPerimeter=0;" edge="1" parent="1" source="mNukyWY0nVPuf0ZmyYI_-176">
          <mxGeometry width="50" height="50" relative="1" as="geometry">
            <mxPoint x="270" y="1579.6599999999999" as="sourcePoint" />
            <mxPoint x="80" y="1440" as="targetPoint" />
            <Array as="points">
              <mxPoint x="530" y="1540" />
              <mxPoint x="80" y="1540" />
            </Array>
          </mxGeometry>
        </mxCell>
        <mxCell id="mNukyWY0nVPuf0ZmyYI_-209" value="&lt;font style=&quot;font-size: 9px;&quot;&gt;Show Dialouge&lt;/font&gt;" style="text;html=1;align=center;verticalAlign=middle;resizable=0;points=[];autosize=1;strokeColor=none;fillColor=none;" vertex="1" parent="1">
          <mxGeometry x="249" y="1520" width="80" height="30" as="geometry" />
        </mxCell>
        <mxCell id="mNukyWY0nVPuf0ZmyYI_-210" value="" style="endArrow=classic;html=1;rounded=0;entryX=0.25;entryY=1;entryDx=0;entryDy=0;exitX=0.114;exitY=0.821;exitDx=0;exitDy=0;exitPerimeter=0;" edge="1" parent="1" source="mNukyWY0nVPuf0ZmyYI_-177" target="mNukyWY0nVPuf0ZmyYI_-181">
          <mxGeometry width="50" height="50" relative="1" as="geometry">
            <mxPoint x="250" y="1589.6599999999999" as="sourcePoint" />
            <mxPoint x="60" y="1450" as="targetPoint" />
            <Array as="points">
              <mxPoint x="40" y="1600" />
            </Array>
          </mxGeometry>
        </mxCell>
        <mxCell id="mNukyWY0nVPuf0ZmyYI_-211" value="&lt;font style=&quot;font-size: 9px;&quot;&gt;Show Dialouge&lt;/font&gt;" style="text;html=1;align=center;verticalAlign=middle;resizable=0;points=[];autosize=1;strokeColor=none;fillColor=none;" vertex="1" parent="1">
          <mxGeometry x="115" y="1580" width="80" height="30" as="geometry" />
        </mxCell>
        <mxCell id="mNukyWY0nVPuf0ZmyYI_-212" value="" style="endArrow=classic;html=1;rounded=0;exitX=0.5;exitY=1;exitDx=0;exitDy=0;" edge="1" parent="1" source="mNukyWY0nVPuf0ZmyYI_-177">
          <mxGeometry width="50" height="50" relative="1" as="geometry">
            <mxPoint x="310" y="1730" as="sourcePoint" />
            <mxPoint x="300" y="1720" as="targetPoint" />
          </mxGeometry>
        </mxCell>
        <mxCell id="mNukyWY0nVPuf0ZmyYI_-213" value="&lt;font size=&quot;1&quot;&gt;Item Detail&lt;/font&gt;" style="text;html=1;align=center;verticalAlign=middle;resizable=0;points=[];autosize=1;strokeColor=none;fillColor=none;" vertex="1" parent="1">
          <mxGeometry x="385" y="1570" width="70" height="30" as="geometry" />
        </mxCell>
        <mxCell id="mNukyWY0nVPuf0ZmyYI_-215" value="" style="endArrow=classic;html=1;rounded=0;exitX=0.5;exitY=0;exitDx=0;exitDy=0;" edge="1" parent="1" source="mNukyWY0nVPuf0ZmyYI_-175">
          <mxGeometry width="50" height="50" relative="1" as="geometry">
            <mxPoint x="520" y="1390" as="sourcePoint" />
            <mxPoint x="320" y="1280" as="targetPoint" />
            <Array as="points">
              <mxPoint x="560" y="1320" />
              <mxPoint x="320" y="1320" />
            </Array>
          </mxGeometry>
        </mxCell>
        <mxCell id="mNukyWY0nVPuf0ZmyYI_-216" value="&lt;font style=&quot;font-size: 9px;&quot;&gt;Modify Environment&lt;/font&gt;" style="text;html=1;align=center;verticalAlign=middle;resizable=0;points=[];autosize=1;strokeColor=none;fillColor=none;" vertex="1" parent="1">
          <mxGeometry x="360" y="1300" width="100" height="30" as="geometry" />
        </mxCell>
      </root>
    </mxGraphModel>
  </diagram>
</mxfile>
